/* XPM */
static char *new_alpha[] = {
/* columns rows colors chars-per-pixel */
"8 864 2 1 ",
". c black",
"X c white",
/* pixels */
"........",
"........",
"........",
"........",
"........",
"........",
"........",
"........",
"........",
"........",
"...X....",
"...X....",
"...X....",
"...X....",
"...X....",
"........",
"...X....",
"........",
"........",
"..X..X..",
"..X..X..",
"........",
"........",
"........",
"........",
"........",
"........",
"........",
"...XXX..",
"..X...X.",
"..X.....",
".XXXX...",
"..X.....",
"..X.....",
".XXXXXX.",
"........",
"........",
"...X....",
".XXXXX..",
".X.X....",
".XXXXX..",
"...X.X..",
".XXXXX..",
"...X....",
"........",
"........",
"........",
".XX...X.",
".XX..X..",
"....X...",
"...X....",
"..X..XX.",
".X...XX.",
"........",
"........",
"...X....",
"..X.X...",
"..X.X...",
"...X....",
"..X.X.X.",
".X...X..",
"..XXX.X.",
"........",
"........",
"...X....",
"..X.....",
"........",
"........",
"........",
"........",
"........",
"........",
"........",
"....X...",
"...X....",
"...X....",
"...X....",
"...X....",
"...X....",
"....X...",
"........",
"........",
"...X....",
"....X...",
"....X...",
"....X...",
"....X...",
"....X...",
"...X....",
"........",
"........",
"........",
"..X..X..",
"...XX...",
".XXXXXX.",
"...XX...",
"..X..X..",
"........",
"........",
"........",
"........",
"...X....",
"...X....",
".XXXXX..",
"...X....",
"...X....",
"........",
"........",
"........",
"........",
"........",
"........",
"........",
"........",
"....X...",
"...X....",
"........",
"........",
"........",
"........",
"........",
".XXXXXX.",
"........",
"........",
"........",
"........",
"........",
"........",
"........",
"........",
"........",
"........",
"...XX...",
"...XX...",
"........",
"........",
"........",
"......X.",
".....X..",
"....X...",
"...X....",
"..X.....",
".X......",
"........",
"........",
"...XX...",
"..X..X..",
".X....X.",
".X....X.",
".X....X.",
"..X..X..",
"...XX...",
"........",
"........",
"...XX...",
"..X.X...",
"....X...",
"....X...",
"....X...",
"....X...",
".XXXXXX.",
"........",
"........",
"..XXXX..",
".X....X.",
"......X.",
"..XXXX..",
".X......",
".X......",
".XXXXXX.",
"........",
"........",
"..XXXX..",
".X....X.",
"......X.",
"...XXX..",
"......X.",
".X....X.",
"..XXXX..",
"........",
"........",
"....X...",
"...XX...",
"..X.X...",
".X..X...",
".XXXXXX.",
"....X...",
"....X...",
"........",
"........",
".XXXXXX.",
".X......",
".X......",
".XXXXX..",
"......X.",
".X....X.",
"..XXXX..",
"........",
"........",
"..XXXX..",
".X....X.",
".X......",
".XXXXX..",
".X....X.",
".X....X.",
"..XXXX..",
"........",
"........",
".XXXXXX.",
"......X.",
".....X..",
"....X...",
"...X....",
"...X....",
"...X....",
"........",
"........",
"..XXXX..",
".X....X.",
".X....X.",
"..XXXX..",
".X....X.",
".X....X.",
"..XXXX..",
"........",
"........",
"..XXXX..",
".X....X.",
".X....X.",
"..XXXXX.",
"......X.",
"......X.",
"..XXXX..",
"........",
"........",
"........",
"...XX...",
"...XX...",
"........",
"........",
"...XX...",
"...XX...",
"........",
"........",
"........",
"...XX...",
"...XX...",
"........",
"........",
"...XX...",
"...XX...",
"..X.....",
"........",
"........",
"....X...",
"...X....",
"..X.....",
"...X....",
"....X...",
"........",
"........",
"........",
"........",
"........",
".XXXXX..",
"........",
".XXXXX..",
"........",
"........",
"........",
"........",
"........",
"...X....",
"....X...",
".....X..",
"....X...",
"...X....",
"........",
"........",
"........",
"..XXX...",
".X...X..",
"....X...",
"...X....",
"...X....",
"........",
"...X....",
"........",
"........",
"..XXXX..",
".X....X.",
".X..X.X.",
".X.X.XX.",
".X.XXXX.",
".X......",
"..XXXX..",
"........",
"........",
"..XXXX..",
".X....X.",
".X....X.",
".XXXXXX.",
".X....X.",
".X....X.",
".X....X.",
"........",
"........",
".XXXXX..",
".X....X.",
".X....X.",
".XXXXX..",
".X....X.",
".X....X.",
".XXXXX..",
"........",
"........",
"..XXXX..",
".X....X.",
".X......",
".X......",
".X......",
".X....X.",
"..XXXX..",
"........",
"........",
".XXXX...",
".X...X..",
".X....X.",
".X....X.",
".X....X.",
".X...X..",
".XXXX...",
"........",
"........",
".XXXXXX.",
".X......",
".X......",
".XXXXX..",
".X......",
".X......",
".XXXXXX.",
"........",
"........",
".XXXXXX.",
".X......",
".X......",
".XXXXX..",
".X......",
".X......",
".X......",
"........",
"........",
"..XXXX..",
".X....X.",
".X......",
".X..XXX.",
".X....X.",
".X....X.",
"..XXXXX.",
"........",
"........",
".X....X.",
".X....X.",
".X....X.",
".XXXXXX.",
".X....X.",
".X....X.",
".X....X.",
"........",
"........",
".XXXXX..",
"...X....",
"...X....",
"...X....",
"...X....",
"...X....",
".XXXXX..",
"........",
"........",
"......X.",
"......X.",
"......X.",
"......X.",
".X....X.",
".X....X.",
"..XXXX..",
"........",
"........",
".X....X.",
".X...X..",
".X..X...",
".XXX....",
".X..X...",
".X...X..",
".X....X.",
"........",
"........",
".X......",
".X......",
".X......",
".X......",
".X......",
".X......",
".XXXXXX.",
"........",
"........",
".X....X.",
".XX..XX.",
".X.XX.X.",
".X.XX.X.",
".X....X.",
".X....X.",
".X....X.",
"........",
"........",
".X....X.",
".XX...X.",
".X.X..X.",
".X..X.X.",
".X...XX.",
".X....X.",
".X....X.",
"........",
"........",
"..XXXX..",
".X....X.",
".X....X.",
".X....X.",
".X....X.",
".X....X.",
"..XXXX..",
"........",
"........",
".XXXXX..",
".X....X.",
".X....X.",
".XXXXX..",
".X......",
".X......",
".X......",
"........",
"........",
"..XXXX..",
".X....X.",
".X....X.",
".X....X.",
".X.X..X.",
".X..X.X.",
"..XXXX..",
"........",
"........",
".XXXXX..",
".X....X.",
".X....X.",
".XXXXX..",
".X..X...",
".X...X..",
".X....X.",
"........",
"........",
"..XXXX..",
".X......",
".X......",
"..XXXX..",
"......X.",
".X....X.",
"..XXXX..",
"........",
"........",
".XXXXX..",
"...X....",
"...X....",
"...X....",
"...X....",
"...X....",
"...X....",
"........",
"........",
".X....X.",
".X....X.",
".X....X.",
".X....X.",
".X....X.",
".X....X.",
"..XXXX..",
"........",
"........",
".X....X.",
".X....X.",
".X....X.",
".X....X.",
".X....X.",
"..X..X..",
"...XX...",
"........",
"........",
".X....X.",
".X....X.",
".X....X.",
".X....X.",
".X.XX.X.",
".X.XX.X.",
".XX..XX.",
"........",
"........",
".X....X.",
"..X..X..",
"...XX...",
"...XX...",
"...XX...",
"..X..X..",
".X....X.",
"........",
"........",
".X...X..",
".X...X..",
"..X.X...",
"...X....",
"...X....",
"...X....",
"...X....",
"........",
"........",
".XXXXXX.",
".....X..",
"....X...",
"...X....",
"..X.....",
".X......",
".XXXXXX.",
"........",
"........",
"........",
"...X....",
"..X.....",
".XXXXXX.",
"..X.....",
"...X....",
"........",
"........",
"........",
".X......",
"XX......",
".X......",
".X..XXX.",
"XXX....X",
"......X.",
".....X..",
"....XXXX",
"........",
"........",
"....X...",
".....X..",
".XXXXXX.",
".....X..",
"....X...",
"........",
"........",
"...X....",
"..XXX...",
".X.X.X..",
"...X....",
"...X....",
"...X....",
"...X....",
"...X....",
"........",
"........",
"..X..X..",
".XXXXXX.",
"..X..X..",
"..X..X..",
"..X..X..",
".XXXXXX.",
"..X..X..",
"........",
"........",
"........",
"........",
"........",
"XXXXXXXX",
"........",
"........",
"........",
"........",
"........",
"........",
"........",
"..XXXX..",
"......X.",
"..XXXXX.",
".X....X.",
"..XXXXX.",
"........",
".X......",
".X......",
".X......",
".XXXXX..",
".X....X.",
".X....X.",
".X....X.",
".XXXXX..",
"........",
"........",
"........",
"........",
"..XXXX..",
".X......",
".X......",
".X......",
"..XXXX..",
"........",
"......X.",
"......X.",
"......X.",
"..XXXXX.",
".X....X.",
".X....X.",
".X....X.",
"..XXXXX.",
"........",
"........",
"........",
"........",
"..XXXX..",
".X....X.",
".XXXXX..",
".X......",
"..XXXX..",
"........",
"........",
"...XXX..",
"..X...X.",
"..X.....",
".XXXX...",
"..X.....",
"..X.....",
"..X.....",
"........",
"........",
"........",
"........",
"..XXXXX.",
".X....X.",
".X....X.",
"..XXXXX.",
"......X.",
"..XXXX..",
"........",
".X......",
".X......",
".XXXXX..",
".X....X.",
".X....X.",
".X....X.",
".X....X.",
"........",
"........",
"....X...",
"........",
"...XX...",
"....X...",
"....X...",
"....X...",
"..XXXXX.",
"........",
"........",
"........",
".....X..",
"........",
".....X..",
".....X..",
".....X..",
".X...X..",
"..XXX...",
"........",
".X......",
".X......",
".X..X...",
".X.X....",
".XX.....",
".X.X....",
".X..X...",
"........",
"........",
"...X....",
"...X....",
"...X....",
"...X....",
"...X....",
"...X....",
"....XX..",
"........",
"........",
"........",
"........",
".XX.X...",
".X.X.X..",
".X.X.X..",
".X.X.X..",
".X.X.X..",
"........",
"........",
"........",
"........",
".XXXXX..",
".X....X.",
".X....X.",
".X....X.",
".X....X.",
"........",
"........",
"........",
"........",
"..XXXX..",
".X....X.",
".X....X.",
".X....X.",
"..XXXX..",
"........",
"........",
"........",
"........",
".XXXXX..",
".X....X.",
".X....X.",
".XXXXX..",
".X......",
".X......",
"........",
"........",
"........",
"..XXXX..",
".X...X..",
".X...X..",
"..XXXX..",
".....X..",
".....XX.",
"........",
"........",
"........",
".XXXXX..",
".X....X.",
".X......",
".X......",
".X......",
"........",
"........",
"........",
"........",
"..XXXX..",
".X......",
"..XXXX..",
"......X.",
"..XXXX..",
"........",
"........",
"...X....",
"...X....",
".XXXXX..",
"...X....",
"...X....",
"...X....",
"....XX..",
"........",
"........",
"........",
"........",
".X...X..",
".X...X..",
".X...X..",
".X...X..",
"..XXXX..",
"........",
"........",
"........",
"........",
".X...X..",
".X...X..",
".X...X..",
"..X.X...",
"...X....",
"........",
"........",
"........",
"........",
".X...X..",
".X...X..",
".X.X.X..",
".X.X.X..",
"..X.X...",
"........",
"........",
"........",
"........",
".X...X..",
"..X.X...",
"...X....",
"..X.X...",
".X...X..",
"........",
"........",
"........",
"........",
".X...X..",
".X...X..",
".X...X..",
"..XXXX..",
".....X..",
"..XXX...",
"........",
"........",
"........",
".XXXXX..",
"....X...",
"...X....",
"..X.....",
".XXXXX..",
"........",
"........",
".X......",
"XX......",
".X......",
".X...XX.",
"XXX.X.X.",
"...X..X.",
"...XXXXX",
"......X.",
"........",
"..X..X..",
"..X..X..",
"..X..X..",
"..X..X..",
"..X..X..",
"..X..X..",
"..X..X..",
"........",
"........",
"XX......",
"..X.....",
"XX......",
"..X..XX.",
"XX..X.X.",
"...X..X.",
"...XXXXX",
"......X.",
"........",
"........",
"...XX...",
"........",
".XXXXXX.",
"........",
"...XX...",
"........",
"........",
"XXXXXXXX",
"XXXXXXXX",
"XXXXXXXX",
"XXXXXXXX",
"XXXXXXXX",
"XXXXXXXX",
"XXXXXXXX",
"........",
"........"
};
