/* XPM */
static char *_separated[] = {
/* columns rows colors chars-per-pixel */
"8 864 2 1 ",
". c black",
"X c white",
/* pixels */
"........",
"........",
"........",
"........",
"........",
"........",
"........",
"........",
"........",
"........",
".XX.....",
".XX.....",
"........",
"........",
"........",
"........",
"........",
"........",
"........",
".....XX.",
".....XX.",
"........",
"........",
"........",
"........",
"........",
"........",
"........",
".XX..XX.",
".XX..XX.",
"........",
"........",
"........",
"........",
"........",
"........",
"........",
"........",
"........",
"........",
".XX.....",
".XX.....",
"........",
"........",
"........",
"........",
".XX.....",
".XX.....",
"........",
".XX.....",
".XX.....",
"........",
"........",
"........",
"........",
".....XX.",
".....XX.",
"........",
".XX.....",
".XX.....",
"........",
"........",
"........",
"........",
".XX..XX.",
".XX..XX.",
"........",
".XX.....",
".XX.....",
"........",
"........",
"........",
"........",
"........",
"........",
"........",
".....XX.",
".....XX.",
"........",
"........",
"........",
"........",
".XX.....",
".XX.....",
"........",
".....XX.",
".....XX.",
"........",
"........",
"........",
"........",
".....XX.",
".....XX.",
"........",
".....XX.",
".....XX.",
"........",
"........",
"........",
"........",
".XX..XX.",
".XX..XX.",
"........",
".....XX.",
".....XX.",
"........",
"........",
"........",
"........",
"........",
"........",
"........",
".XX..XX.",
".XX..XX.",
"........",
"........",
"........",
"........",
".XX.....",
".XX.....",
"........",
".XX..XX.",
".XX..XX.",
"........",
"........",
"........",
"........",
".....XX.",
".....XX.",
"........",
".XX..XX.",
".XX..XX.",
"........",
"........",
"........",
"........",
".XX..XX.",
".XX..XX.",
"........",
".XX..XX.",
".XX..XX.",
"........",
"........",
"........",
"........",
"........",
"........",
"........",
"........",
"........",
"........",
".XX.....",
".XX.....",
"........",
".XX.....",
".XX.....",
"........",
"........",
"........",
"........",
".XX.....",
".XX.....",
"........",
".....XX.",
".....XX.",
"........",
"........",
"........",
"........",
".XX.....",
".XX.....",
"........",
".XX..XX.",
".XX..XX.",
"........",
"........",
"........",
"........",
".XX.....",
".XX.....",
"........",
"........",
"........",
"........",
"........",
"........",
"........",
".XX.....",
".XX.....",
"........",
".XX.....",
".XX.....",
"........",
".XX.....",
".XX.....",
"........",
".XX.....",
".XX.....",
"........",
".....XX.",
".....XX.",
"........",
".XX.....",
".XX.....",
"........",
".XX.....",
".XX.....",
"........",
".XX..XX.",
".XX..XX.",
"........",
".XX.....",
".XX.....",
"........",
".XX.....",
".XX.....",
"........",
"........",
"........",
"........",
".....XX.",
".....XX.",
"........",
".XX.....",
".XX.....",
"........",
".XX.....",
".XX.....",
"........",
".....XX.",
".....XX.",
"........",
".XX.....",
".XX.....",
"........",
".....XX.",
".....XX.",
"........",
".....XX.",
".....XX.",
"........",
".XX.....",
".XX.....",
"........",
".XX..XX.",
".XX..XX.",
"........",
".....XX.",
".....XX.",
"........",
".XX.....",
".XX.....",
"........",
"........",
"........",
"........",
".XX..XX.",
".XX..XX.",
"........",
".XX.....",
".XX.....",
"........",
".XX.....",
".XX.....",
"........",
".XX..XX.",
".XX..XX.",
"........",
".XX.....",
".XX.....",
"........",
".....XX.",
".....XX.",
"........",
".XX..XX.",
".XX..XX.",
"........",
".XX.....",
".XX.....",
"........",
".XX..XX.",
".XX..XX.",
"........",
".XX..XX.",
".XX..XX.",
"........",
".XX.....",
".XX.....",
"........",
"..XXXX..",
".X....X.",
".X..X.X.",
".X.X.XX.",
".X.XXXX.",
".X......",
"..XXXX..",
"........",
"........",
"..XXXX..",
".X....X.",
".X....X.",
".XXXXXX.",
".X....X.",
".X....X.",
".X....X.",
"........",
"........",
".XXXXX..",
".X....X.",
".X....X.",
".XXXXX..",
".X....X.",
".X....X.",
".XXXXX..",
"........",
"........",
"..XXXX..",
".X....X.",
".X......",
".X......",
".X......",
".X....X.",
"..XXXX..",
"........",
"........",
".XXXX...",
".X...X..",
".X....X.",
".X....X.",
".X....X.",
".X...X..",
".XXXX...",
"........",
"........",
".XXXXXX.",
".X......",
".X......",
".XXXXX..",
".X......",
".X......",
".XXXXXX.",
"........",
"........",
".XXXXXX.",
".X......",
".X......",
".XXXXX..",
".X......",
".X......",
".X......",
"........",
"........",
"..XXXX..",
".X....X.",
".X......",
".X..XXX.",
".X....X.",
".X....X.",
"..XXXXX.",
"........",
"........",
".X....X.",
".X....X.",
".X....X.",
".XXXXXX.",
".X....X.",
".X....X.",
".X....X.",
"........",
"........",
".XXXXX..",
"...X....",
"...X....",
"...X....",
"...X....",
"...X....",
".XXXXX..",
"........",
"........",
"......X.",
"......X.",
"......X.",
"......X.",
".X....X.",
".X....X.",
"..XXXX..",
"........",
"........",
".X....X.",
".X...X..",
".X..X...",
".XXX....",
".X..X...",
".X...X..",
".X....X.",
"........",
"........",
".X......",
".X......",
".X......",
".X......",
".X......",
".X......",
".XXXXXX.",
"........",
"........",
".X....X.",
".XX..XX.",
".X.XX.X.",
".X.XX.X.",
".X....X.",
".X....X.",
".X....X.",
"........",
"........",
".X....X.",
".XX...X.",
".X.X..X.",
".X..X.X.",
".X...XX.",
".X....X.",
".X....X.",
"........",
"........",
"..XXXX..",
".X....X.",
".X....X.",
".X....X.",
".X....X.",
".X....X.",
"..XXXX..",
"........",
"........",
".XXXXX..",
".X....X.",
".X....X.",
".XXXXX..",
".X......",
".X......",
".X......",
"........",
"........",
"..XXXX..",
".X....X.",
".X....X.",
".X....X.",
".X.X..X.",
".X..X.X.",
"..XXXX..",
"........",
"........",
".XXXXX..",
".X....X.",
".X....X.",
".XXXXX..",
".X..X...",
".X...X..",
".X....X.",
"........",
"........",
"..XXXX..",
".X......",
".X......",
"..XXXX..",
"......X.",
".X....X.",
"..XXXX..",
"........",
"........",
".XXXXX..",
"...X....",
"...X....",
"...X....",
"...X....",
"...X....",
"...X....",
"........",
"........",
".X....X.",
".X....X.",
".X....X.",
".X....X.",
".X....X.",
".X....X.",
"..XXXX..",
"........",
"........",
".X....X.",
".X....X.",
".X....X.",
".X....X.",
".X....X.",
"..X..X..",
"...XX...",
"........",
"........",
".X....X.",
".X....X.",
".X....X.",
".X....X.",
".X.XX.X.",
".X.XX.X.",
".XX..XX.",
"........",
"........",
".X....X.",
"..X..X..",
"...XX...",
"...XX...",
"...XX...",
"..X..X..",
".X....X.",
"........",
"........",
".X...X..",
".X...X..",
"..X.X...",
"...X....",
"...X....",
"...X....",
"...X....",
"........",
"........",
".XXXXXX.",
".....X..",
"....X...",
"...X....",
"..X.....",
".X......",
".XXXXXX.",
"........",
"........",
"........",
"...X....",
"..X.....",
".XXXXXX.",
"..X.....",
"...X....",
"........",
"........",
"........",
".X......",
"XX......",
".X......",
".X..XXX.",
"XXX....X",
"......X.",
".....X..",
"....XXXX",
"........",
"........",
"....X...",
".....X..",
".XXXXXX.",
".....X..",
"....X...",
"........",
"........",
"...X....",
"..XXX...",
".X.X.X..",
"...X....",
"...X....",
"...X....",
"...X....",
"...X....",
"........",
"........",
"..X..X..",
".XXXXXX.",
"..X..X..",
"..X..X..",
"..X..X..",
".XXXXXX.",
"..X..X..",
"........",
"........",
"........",
"........",
"........",
"........",
"........",
"........",
".....XX.",
".....XX.",
"........",
".XX.....",
".XX.....",
"........",
"........",
"........",
"........",
".....XX.",
".....XX.",
"........",
".....XX.",
".....XX.",
"........",
"........",
"........",
"........",
".....XX.",
".....XX.",
"........",
".XX..XX.",
".XX..XX.",
"........",
"........",
"........",
"........",
".....XX.",
".....XX.",
"........",
"........",
"........",
"........",
".XX.....",
".XX.....",
"........",
".....XX.",
".....XX.",
"........",
".XX.....",
".XX.....",
"........",
".XX.....",
".XX.....",
"........",
".....XX.",
".....XX.",
"........",
".....XX.",
".....XX.",
"........",
".XX.....",
".XX.....",
"........",
".....XX.",
".....XX.",
"........",
".XX..XX.",
".XX..XX.",
"........",
".XX.....",
".XX.....",
"........",
".....XX.",
".....XX.",
"........",
"........",
"........",
"........",
".....XX.",
".....XX.",
"........",
".....XX.",
".....XX.",
"........",
".XX.....",
".XX.....",
"........",
".....XX.",
".....XX.",
"........",
".....XX.",
".....XX.",
"........",
".....XX.",
".....XX.",
"........",
".....XX.",
".....XX.",
"........",
".....XX.",
".....XX.",
"........",
".XX..XX.",
".XX..XX.",
"........",
".....XX.",
".....XX.",
"........",
".....XX.",
".....XX.",
"........",
"........",
"........",
"........",
".XX..XX.",
".XX..XX.",
"........",
".....XX.",
".....XX.",
"........",
".XX.....",
".XX.....",
"........",
".XX..XX.",
".XX..XX.",
"........",
".....XX.",
".....XX.",
"........",
".....XX.",
".....XX.",
"........",
".XX..XX.",
".XX..XX.",
"........",
".....XX.",
".....XX.",
"........",
".XX..XX.",
".XX..XX.",
"........",
".XX..XX.",
".XX..XX.",
"........",
".....XX.",
".....XX.",
"........",
"........",
"........",
"........",
"........",
"........",
"........",
".XX..XX.",
".XX..XX.",
"........",
".XX.....",
".XX.....",
"........",
"........",
"........",
"........",
".XX..XX.",
".XX..XX.",
"........",
".....XX.",
".....XX.",
"........",
"........",
"........",
"........",
".XX..XX.",
".XX..XX.",
"........",
".XX..XX.",
".XX..XX.",
"........",
"........",
"........",
"........",
".XX..XX.",
".XX..XX.",
"........",
"........",
"........",
".XX.....",
".XX.....",
"........",
"........",
".XX..XX.",
".XX..XX.",
"........",
".XX.....",
".XX.....",
"........",
".XX.....",
".XX.....",
"........",
".XX..XX.",
".XX..XX.",
"........",
".....XX.",
".....XX.",
"........",
".XX.....",
".XX.....",
"........",
".XX..XX.",
".XX..XX.",
"........",
".XX..XX.",
".XX..XX.",
"........",
".XX.....",
".XX.....",
"........",
".XX..XX.",
".XX..XX.",
"........",
"........",
"........",
".....XX.",
".....XX.",
"........",
"........",
".XX..XX.",
".XX..XX.",
"........",
".XX.....",
".XX.....",
"........",
".....XX.",
".....XX.",
"........",
".XX..XX.",
".XX..XX.",
"........",
".....XX.",
".....XX.",
"........",
".....XX.",
".....XX.",
"........",
".XX..XX.",
".XX..XX.",
"........",
".XX..XX.",
".XX..XX.",
"........",
".....XX.",
".....XX.",
"........",
".XX..XX.",
".XX..XX.",
"........",
"........",
"........",
"........",
".XX..XX.",
".XX..XX.",
"........",
".XX..XX.",
".XX..XX.",
"........",
".XX.....",
".XX.....",
"........",
".XX..XX.",
".XX..XX.",
"........",
".XX..XX.",
".XX..XX.",
"........",
".....XX.",
".....XX.",
"........",
".XX..XX.",
".XX..XX.",
"........",
".XX..XX.",
".XX..XX.",
"........",
".XX..XX.",
".XX..XX.",
"........",
".XX..XX.",
".XX..XX.",
"........",
".XX..XX.",
".XX..XX."
};
